/* XPM */
static char *tile_scaled1726655627[] = {
/* columns rows colors chars-per-pixel */
"64 64 6 1 ",
"  c #141412",
". c #191C1E",
"X c #24282C",
"o c #2B3037",
"O c #343C45",
"+ c #394554",
/* pixels */
"                                                                ",
"                                                                ",
"                                                                ",
"                                                                ",
"    ............................................XXXXXXXXXXXXXXXX",
"    ............................................XXXXXXXXXXXXXXXX",
"    ............................................XXXXXXXXXXXXXXXX",
"    ............................................XXXXXXXXXXXXXXXX",
"    ............................................XXXXXXXXXXXXXXXX",
"    ............................................XXXXXXXXXXXXXXXX",
"    ............................................XXXXXXXXXXXXXXXX",
"    ............................................XXXXXXXXXXXXXXXX",
"                    ............................................",
"                    ............................................",
"                    ............................................",
"                    ............................................",
"        XXXXXXXXXXXXXXXXXXXXXXXXoooo....OOOOOOOOOOOOOOOOOOOOOOOO",
"        XXXXXXXXXXXXXXXXXXXXXXXXoooo....OOOOOOOOOOOOOOOOOOOOOOOO",
"        XXXXXXXXXXXXXXXXXXXXXXXXoooo....OOOOOOOOOOOOOOOOOOOOOOOO",
"        XXXXXXXXXXXXXXXXXXXXXXXXoooo....OOOOOOOOOOOOOOOOOOOOOOOO",
"        ............XXXXXXXXXXXXooooXXXXOOOOOOOOOOOOOOOOOOOOOOOO",
"        ............XXXXXXXXXXXXooooXXXXOOOOOOOOOOOOOOOOOOOOOOOO",
"        ............XXXXXXXXXXXXooooXXXXOOOOOOOOOOOOOOOOOOOOOOOO",
"        ............XXXXXXXXXXXXooooXXXXOOOOOOOOOOOOOOOOOOOOOOOO",
"        ............XXXXXXXXXXXXooooXXXXOOOOOOOOOOOOOOOOOOOOOOOO",
"        ............XXXXXXXXXXXXooooXXXXOOOOOOOOOOOOOOOOOOOOOOOO",
"        ............XXXXXXXXXXXXooooXXXXOOOOOOOOOOOOOOOOOOOOOOOO",
"        ............XXXXXXXXXXXXooooXXXXOOOOOOOOOOOOOOOOOOOOOOOO",
"                        ........XXXXXXXXXXXXXXXXXXXXXXXXXXXXXXXX",
"                        ........XXXXXXXXXXXXXXXXXXXXXXXXXXXXXXXX",
"                        ........XXXXXXXXXXXXXXXXXXXXXXXXXXXXXXXX",
"                        ........XXXXXXXXXXXXXXXXXXXXXXXXXXXXXXXX",
"    ........XXXXXXXXooooooooooooOOOOOOOOOOOOOOOOOOOOOOOOOOOOOOOO",
"    ........XXXXXXXXooooooooooooOOOOOOOOOOOOOOOOOOOOOOOOOOOOOOOO",
"    ........XXXXXXXXooooooooooooOOOOOOOOOOOOOOOOOOOOOOOOOOOOOOOO",
"    ........XXXXXXXXooooooooooooOOOOOOOOOOOOOOOOOOOOOOOOOOOOOOOO",
"    ........XXXXXXXXooooooooooooOOOOOOOOOOOOOOOOOOOOOOOOOOOOOOOO",
"    ........XXXXXXXXooooooooooooOOOOOOOOOOOOOOOOOOOOOOOOOOOOOOOO",
"    ........XXXXXXXXooooooooooooOOOOOOOOOOOOOOOOOOOOOOOOOOOOOOOO",
"    ........XXXXXXXXooooooooooooOOOOOOOOOOOOOOOOOOOOOOOOOOOOOOOO",
"    ........XXXXXXXXooooooooooooOOOOOOOOOOOOOOOOOOOOOOOOOOOOOOOO",
"    ........XXXXXXXXooooooooooooOOOOOOOOOOOOOOOOOOOOOOOOOOOOOOOO",
"    ........XXXXXXXXooooooooooooOOOOOOOOOOOOOOOOOOOOOOOOOOOOOOOO",
"    ........XXXXXXXXooooooooooooOOOOOOOOOOOOOOOOOOOOOOOOOOOOOOOO",
"                        ........XXXXXXXXXXXXXXXXXXXXXXXXXXXXXXXX",
"                        ........XXXXXXXXXXXXXXXXXXXXXXXXXXXXXXXX",
"                        ........XXXXXXXXXXXXXXXXXXXXXXXXXXXXXXXX",
"                        ........XXXXXXXXXXXXXXXXXXXXXXXXXXXXXXXX",
"        ........ooooOOOOOOOOOOOOOOOOXXXX++++++++++++++++++++++++",
"        ........ooooOOOOOOOOOOOOOOOOXXXX++++++++++++++++++++++++",
"        ........ooooOOOOOOOOOOOOOOOOXXXX++++++++++++++++++++++++",
"        ........ooooOOOOOOOOOOOOOOOOXXXX++++++++++++++++++++++++",
"        ............ooooooooooooooooXXXXOOOOOOOOOOOOOOOOOOOOOOOO",
"        ............ooooooooooooooooXXXXOOOOOOOOOOOOOOOOOOOOOOOO",
"        ............ooooooooooooooooXXXXOOOOOOOOOOOOOOOOOOOOOOOO",
"        ............ooooooooooooooooXXXXOOOOOOOOOOOOOOOOOOOOOOOO",
"        ............ooooooooooooooooXXXXOOOOOOOOOOOOOOOOOOOOOOOO",
"        ............ooooooooooooooooXXXXOOOOOOOOOOOOOOOOOOOOOOOO",
"        ............ooooooooooooooooXXXXOOOOOOOOOOOOOOOOOOOOOOOO",
"        ............ooooooooooooooooXXXXOOOOOOOOOOOOOOOOOOOOOOOO",
"                        ........XXXXXXXXXXXXXXXXXXXXXXXXXXXXXXXX",
"                        ........XXXXXXXXXXXXXXXXXXXXXXXXXXXXXXXX",
"                        ........XXXXXXXXXXXXXXXXXXXXXXXXXXXXXXXX",
"                        ........XXXXXXXXXXXXXXXXXXXXXXXXXXXXXXXX"
};
