/* XPM */
static char *floor1727259234[] = {
/* columns rows colors chars-per-pixel */
"64 64 3 1 ",
"  c #2E1E16",
". c #392A1E",
"X c #433326",
/* pixels */
"XXXXXXXX....................................XXXX....XXXXXXXXXXXX",
"XXXXXXXX....................................XXXX....XXXXXXXXXXXX",
"XXXXXXXX....................................XXXX....XXXXXXXXXXXX",
"XXXXXXXX....................................XXXX....XXXXXXXXXXXX",
"XXXXXXXX....................................XXXX....XXXXXXXXXXXX",
"XXXXXXXX....................................XXXX....XXXXXXXXXXXX",
"XXXXXXXX....................................XXXX....XXXXXXXXXXXX",
"XXXXXXXX....................................XXXX....XXXXXXXXXXXX",
"XXXXXXXX....................................XXXX....XXXXXXXXXXXX",
"XXXXXXXX....................................XXXX....XXXXXXXXXXXX",
"XXXXXXXX....................................XXXX....XXXXXXXXXXXX",
"XXXXXXXX....................................XXXX....XXXXXXXXXXXX",
"                                                                ",
"                                                                ",
"                                                                ",
"                                                                ",
"XXXXXXXXXXXX....XXXX........................................XXXX",
"XXXXXXXXXXXX....XXXX........................................XXXX",
"XXXXXXXXXXXX....XXXX........................................XXXX",
"XXXXXXXXXXXX....XXXX........................................XXXX",
"XXXXXXXXXXXX....XXXX........................................XXXX",
"XXXXXXXXXXXX....XXXX........................................XXXX",
"XXXXXXXXXXXX....XXXX........................................XXXX",
"XXXXXXXXXXXX....XXXX........................................XXXX",
"XXXXXXXXXXXX....XXXX........................................XXXX",
"XXXXXXXXXXXX....XXXX........................................XXXX",
"XXXXXXXXXXXX....XXXX........................................XXXX",
"XXXXXXXXXXXX....XXXX........................................XXXX",
"                                                                ",
"                                                                ",
"                                                                ",
"                                                                ",
"XXXXXXXX................................XXXX....XXXXXXXXXXXXXXXX",
"XXXXXXXX................................XXXX....XXXXXXXXXXXXXXXX",
"XXXXXXXX................................XXXX....XXXXXXXXXXXXXXXX",
"XXXXXXXX................................XXXX....XXXXXXXXXXXXXXXX",
"XXXXXXXX................................XXXX....XXXXXXXXXXXXXXXX",
"XXXXXXXX................................XXXX....XXXXXXXXXXXXXXXX",
"XXXXXXXX................................XXXX....XXXXXXXXXXXXXXXX",
"XXXXXXXX................................XXXX....XXXXXXXXXXXXXXXX",
"XXXXXXXX................................XXXX....XXXXXXXXXXXXXXXX",
"XXXXXXXX................................XXXX....XXXXXXXXXXXXXXXX",
"XXXXXXXX................................XXXX....XXXXXXXXXXXXXXXX",
"XXXXXXXX................................XXXX....XXXXXXXXXXXXXXXX",
"                                                                ",
"                                                                ",
"                                                                ",
"                                                                ",
"XXXXXXXXXXXX....XXXX................................XXXX....XXXX",
"XXXXXXXXXXXX....XXXX................................XXXX....XXXX",
"XXXXXXXXXXXX....XXXX................................XXXX....XXXX",
"XXXXXXXXXXXX....XXXX................................XXXX....XXXX",
"XXXXXXXXXXXX....XXXX................................XXXX....XXXX",
"XXXXXXXXXXXX....XXXX................................XXXX....XXXX",
"XXXXXXXXXXXX....XXXX................................XXXX....XXXX",
"XXXXXXXXXXXX....XXXX................................XXXX....XXXX",
"XXXXXXXXXXXX....XXXX................................XXXX....XXXX",
"XXXXXXXXXXXX....XXXX................................XXXX....XXXX",
"XXXXXXXXXXXX....XXXX................................XXXX....XXXX",
"XXXXXXXXXXXX....XXXX................................XXXX....XXXX",
"                                                                ",
"                                                                ",
"                                                                ",
"                                                                "
};
